<svg xmlns="http://www.w3.org/2000/svg" width="20" height="20" viewBox="0 0 20 20">
  <g id="Group_5901" data-name="Group 5901" transform="translate(-428 -294)">
    <circle id="Ellipse_488" data-name="Ellipse 488" cx="10" cy="10" r="10" transform="translate(428 294)" fill="#c87d7a"/>
    <path id="Union_88" data-name="Union 88" d="M4.363,11.687A6.009,6.009,0,0,1,.61,4.6,2.155,2.155,0,0,1,2.984,1.1a6,6,0,0,1,7.445.409,2.157,2.157,0,0,1,1.988,3.745,6.031,6.031,0,0,1-3.855,6.43,2.152,2.152,0,0,1-4.2,0ZM2.187,8.308A4.806,4.806,0,0,0,4.45,10.438a2.152,2.152,0,0,1,4.02-.008q.126-.058.249-.123a4.813,4.813,0,0,0,2.548-4.59q-.094.008-.19.008A2.158,2.158,0,0,1,9.409,2.2a4.818,4.818,0,0,0-5.226-.441q-.121.064-.237.135A2.155,2.155,0,0,1,1.7,5.2,4.823,4.823,0,0,0,2.187,8.308Z" transform="translate(431.463 297.873)" fill="#fff" stroke="rgba(0,0,0,0)" stroke-miterlimit="10" stroke-width="1"/>
  </g>
</svg>
