<svg id="Component_147_1" data-name="Component 147 – 1" xmlns="http://www.w3.org/2000/svg" width="30" height="30" viewBox="0 0 30 30">
  <path id="Union_112" data-name="Union 112" d="M2.668,18A2.671,2.671,0,0,1,0,15.332V3.771A2.671,2.671,0,0,1,2.668,1.1H7.835a.889.889,0,0,1,0,1.779H2.668a.889.889,0,0,0-.889.889V15.332a.89.89,0,0,0,.889.889H12.88a.89.89,0,0,0,.889-.889v-2.8a.889.889,0,0,1,.889-.888h0a.889.889,0,0,1,.888.889v2.793A2.671,2.671,0,0,1,12.88,18ZM8,13.179H6.011a.888.888,0,0,1-.888-.889V10.3A4.639,4.639,0,0,1,6.485,7L12.506.982A3.4,3.4,0,0,1,17.313,5.8L11.3,11.816a4.641,4.641,0,0,1-3.286,1.363Zm-.261-4.92A2.873,2.873,0,0,0,6.9,10.3v1.1H8a2.873,2.873,0,0,0,2.04-.843L14.012,6.59l-2.3-2.3Zm6.012-6.012-.785.785,2.3,2.3.786-.785h0a1.626,1.626,0,0,0-2.3-2.3Z" transform="translate(6 6)" fill="#7d8c9a" stroke="rgba(0,0,0,0)" stroke-miterlimit="10" stroke-width="1"/>
  <rect id="Rectangle_4365" data-name="Rectangle 4365" width="30" height="30" fill="none" opacity="0.5"/>
</svg>
