<svg xmlns="http://www.w3.org/2000/svg" width="74" height="74" viewBox="0 0 74 74">
  <g id="Group_4590" data-name="Group 4590" transform="translate(-5467.183 -5037.183)">
    <circle id="Ellipse_545" data-name="Ellipse 545" cx="37" cy="37" r="37" transform="translate(5467.183 5037.183)" fill="#ecf5fc"/>
    <path id="Union_130" data-name="Union 130" d="M0,33.227v-19.7H5.994v19.7Zm13.275,0a3,3,0,0,1-2.994-2.994V13.1a2.957,2.957,0,0,1,.865-2.114L22.135,0l1.51,1.5a2.139,2.139,0,0,1,.631,1.471l-.043.5L22.5,11.816H33.835a3,3,0,0,1,3,3v3.424a2.878,2.878,0,0,1-.208,1.083L31.449,31.4a2.969,2.969,0,0,1-2.756,1.827Zm-.429-20.3V30.659H28.974l5.287-12.42V14.383h-15.3L21.5,4.263Z" transform="translate(5485.987 5056.778)" fill="#1c88e1" stroke="rgba(0,0,0,0)" stroke-miterlimit="10" stroke-width="1"/>
  </g>
</svg>
