<svg xmlns="http://www.w3.org/2000/svg" width="42" height="42" viewBox="0 0 42 42">
  <g id="Group_5944" data-name="Group 5944" transform="translate(-4196 -146)">
    <circle id="Ellipse_492" data-name="Ellipse 492" cx="21" cy="21" r="21" transform="translate(4196 146)" fill="#ecf5fc"/>
    <path id="Union_109" data-name="Union 109" d="M0,20V8.143H3.608V20Zm7.99,0a1.8,1.8,0,0,1-1.8-1.8V7.886A1.778,1.778,0,0,1,6.71,6.613L13.324,0l.909.9a1.29,1.29,0,0,1,.381.886l-.026.3L13.543,7.113h6.824a1.805,1.805,0,0,1,1.8,1.8v2.061a1.726,1.726,0,0,1-.125.652L18.931,18.9A1.787,1.787,0,0,1,17.272,20ZM7.733,7.779V18.455h9.708l3.182-7.475V8.658H11.415l1.529-6.092Z" transform="translate(4206 156)" fill="#1c88e1" stroke="rgba(0,0,0,0)" stroke-miterlimit="10" stroke-width="1"/>
  </g>
</svg>
