<svg xmlns="http://www.w3.org/2000/svg" width="35.822" height="44" viewBox="0 0 35.822 44">
  <path id="Union_132" data-name="Union 132" d="M-2074.973-2536a4.688,4.688,0,0,1-4.683-4.683v-2.1h-.457a1.887,1.887,0,0,1-1.887-1.886v-11.444a1.887,1.887,0,0,1,1.887-1.887h.457v-17.317a4.69,4.69,0,0,1,4.683-4.684h17.673l11.122,11.083v28.234a4.688,4.688,0,0,1-4.682,4.683Zm-1.813-4.683a1.817,1.817,0,0,0,1.813,1.815h24.113a1.816,1.816,0,0,0,1.813-1.815l-.068-27.1-6.011.017a3.249,3.249,0,0,1-3.247-3.248v-6.135l-16.6.017a1.817,1.817,0,0,0-1.813,1.813V-2558h22.479a1.887,1.887,0,0,1,1.887,1.887v11.444a1.887,1.887,0,0,1-1.887,1.886h-22.479Zm6.583-13.365v7.8a15.438,15.438,0,0,0,2.037.118,5.7,5.7,0,0,0,3.662-1.024,4.023,4.023,0,0,0,1.319-3.214,3.515,3.515,0,0,0-1.342-2.992,5.114,5.114,0,0,0-3.251-.847A16.214,16.214,0,0,0-2070.2-2554.048Zm8.2,7.832h1.8v-3.191h2.85v-1.46h-2.85v-1.813h3.05v-1.471H-2062Zm-15.046-7.832v7.832h1.779v-2.838a4.668,4.668,0,0,0,.612.034,3.682,3.682,0,0,0,2.58-.835,2.539,2.539,0,0,0,.73-1.885,2.323,2.323,0,0,0-.848-1.837,3.81,3.81,0,0,0-2.426-.635A14.775,14.775,0,0,0-2077.05-2554.048Zm9.272,6.513a3.262,3.262,0,0,1-.625-.036v-5.192a3.671,3.671,0,0,1,.813-.071,2.278,2.278,0,0,1,2.5,2.52,2.457,2.457,0,0,1-2.654,2.779Zm-7.493-2.908v-2.344a3.048,3.048,0,0,1,.741-.071c.895,0,1.4.436,1.4,1.167,0,.813-.59,1.295-1.543,1.295A2.828,2.828,0,0,1-2075.271-2550.443Z" transform="translate(2082 2580)" fill="#ff6565"/>
</svg>
