<svg xmlns="http://www.w3.org/2000/svg" width="74" height="74" viewBox="0 0 74 74">
  <g id="Group_4597" data-name="Group 4597" transform="translate(-8067 -5439)">
    <circle id="Ellipse_493" data-name="Ellipse 493" cx="37" cy="37" r="37" transform="translate(8067 5439)" fill="#fff5ea"/>
    <g id="Group_4102" data-name="Group 4102" transform="translate(8089 5455)">
      <path id="Path_5192" data-name="Path 5192" d="M494.187,595.81v-5.728l-7.635,7.637,7.637,7.637v-5.728a11.464,11.464,0,0,1,11.454,11.454,11.184,11.184,0,0,1-1.337,5.346l2.788,2.788a15.247,15.247,0,0,0-12.908-23.406Zm0,26.729a11.464,11.464,0,0,1-11.454-11.457,11.245,11.245,0,0,1,1.337-5.346l-2.786-2.786a15.246,15.246,0,0,0,12.906,23.406v5.726l7.637-7.637-7.637-7.637Z" transform="translate(-478.915 -590.082)" fill="#ff8f00"/>
    </g>
  </g>
</svg>
