<svg xmlns="http://www.w3.org/2000/svg" width="13.786" height="12" viewBox="0 0 13.786 12">
  <path id="Path_5257" data-name="Path 5257" d="M7.893,4.675A6.122,6.122,0,0,1,13.42,8.121a6.045,6.045,0,0,1-1.51,1.955l.884.884a7.4,7.4,0,0,0,1.993-2.839A7.415,7.415,0,0,0,5.612,3.778L6.646,4.812A6.334,6.334,0,0,1,7.893,4.675Zm-.67.714,1.3,1.3a1.566,1.566,0,0,1,.8.8l1.3,1.3a2.932,2.932,0,0,0,.088-.67A2.809,2.809,0,0,0,7.893,5.3,2.659,2.659,0,0,0,7.222,5.389ZM1.633,3.34,3.312,5.019A7.355,7.355,0,0,0,1,8.121a7.411,7.411,0,0,0,6.893,4.7,7.35,7.35,0,0,0,2.707-.514l2.143,2.143.884-.884L2.516,2.45Zm4.7,4.7L7.968,9.675a.314.314,0,0,1-.075.013A1.567,1.567,0,0,1,6.326,8.121C6.326,8.09,6.333,8.071,6.333,8.04ZM4.2,5.909l1.1,1.1a2.883,2.883,0,0,0-.226,1.115A2.823,2.823,0,0,0,9,10.715l.614.614a6.537,6.537,0,0,1-1.723.238A6.122,6.122,0,0,1,2.366,8.121,6.2,6.2,0,0,1,4.2,5.909Z" transform="translate(-1 -2.45)" fill="#7d8c9a"/>
</svg>
