<svg xmlns="http://www.w3.org/2000/svg" width="14" height="14" viewBox="0 0 14 14">
  <g id="Group_5903" data-name="Group 5903" transform="translate(-1884 -25)">
    <g id="Path_5123" data-name="Path 5123" transform="translate(1884 25)" fill="#f7f7f7">
      <path d="M 10.88889026641846 13.5 L 3.111109972000122 13.5 C 1.671339988708496 13.5 0.5 12.3286600112915 0.5 10.88889026641846 L 0.5 3.111109972000122 C 0.5 1.671339988708496 1.671339988708496 0.5 3.111109972000122 0.5 L 10.88889026641846 0.5 C 12.3286600112915 0.5 13.5 1.671339988708496 13.5 3.111109972000122 L 13.5 10.88889026641846 C 13.5 12.3286600112915 12.3286600112915 13.5 10.88889026641846 13.5 Z" stroke="none"/>
      <path d="M 3.111109733581543 1 C 1.947039604187012 1 1 1.947039604187012 1 3.111109733581543 L 1 10.88889026641846 C 1 12.05296039581299 1.947039604187012 13 3.111109733581543 13 L 10.88889026641846 13 C 12.05296039581299 13 13 12.05296039581299 13 10.88889026641846 L 13 3.111109733581543 C 13 1.947039604187012 12.05296039581299 1 10.88889026641846 1 L 3.111109733581543 1 M 3.111109733581543 0 L 10.88889026641846 0 C 12.60711002349854 0 14 1.392889976501465 14 3.111109733581543 L 14 10.88889026641846 C 14 12.60711002349854 12.60711002349854 14 10.88889026641846 14 L 3.111109733581543 14 C 1.392889976501465 14 0 12.60711002349854 0 10.88889026641846 L 0 3.111109733581543 C 0 1.392889976501465 1.392889976501465 0 3.111109733581543 0 Z" stroke="none" fill="#7d8c9a"/>
    </g>
    <path id="Path_4732" data-name="Path 4732" d="M6.837,8.59l2.726,2.72,2.726-2.72.837.837L9.563,12.99,6,9.427Z" transform="translate(1881.437 21.41)" fill="#7d8c9a"/>
  </g>
</svg>
