<svg xmlns="http://www.w3.org/2000/svg" width="13.37" height="13.161" viewBox="0 0 13.37 13.161">
  <path id="Union_112" data-name="Union 112" d="M1.779,12A1.781,1.781,0,0,1,0,10.221V2.514A1.781,1.781,0,0,1,1.779.735H5.223a.593.593,0,0,1,0,1.186H1.779a.593.593,0,0,0-.593.593v7.707a.593.593,0,0,0,.593.593H8.587a.593.593,0,0,0,.593-.593V8.359h0a.593.593,0,0,1,.593-.592h0a.592.592,0,0,1,.592.593v1.862A1.78,1.78,0,0,1,8.587,12ZM5.336,8.786H4.007a.592.592,0,0,1-.592-.593V6.866a3.093,3.093,0,0,1,.908-2.2L8.337.654a2.27,2.27,0,0,1,3.205,3.215L7.534,7.877a3.094,3.094,0,0,1-2.191.909Zm-.174-3.28A1.915,1.915,0,0,0,4.6,6.866V7.6h.735A1.916,1.916,0,0,0,6.7,7.039L9.342,4.393,7.808,2.86ZM9.17,1.5l-.523.523L10.18,3.555l.524-.524h0A1.084,1.084,0,0,0,9.17,1.5Z" transform="translate(0.5 0.661)" fill="#7d8c9a" stroke="rgba(0,0,0,0)" stroke-miterlimit="10" stroke-width="1"/>
</svg>
