<svg xmlns="http://www.w3.org/2000/svg" width="21.422" height="19" viewBox="0 0 21.422 19">
  <path id="Union_227" data-name="Union 227" d="M2980.261-1359.437l1.051-1.051a7.529,7.529,0,0,0,7.257,1.7,7.319,7.319,0,0,0,5.062-5.071,7.547,7.547,0,0,0-9.554-9.305,7.364,7.364,0,0,0-5.18,7.06v.392h2.259a.177.177,0,0,1,.125.3l-3.124,3.128-3.1-3.1a.194.194,0,0,1,.137-.331h2.218V-1366a8.948,8.948,0,0,1,2.632-6.364,8.933,8.933,0,0,1,6.363-2.636,9.013,9.013,0,0,1,9.005,9,9.013,9.013,0,0,1-9.005,9A8.907,8.907,0,0,1,2980.261-1359.437Zm4.914-5.531v-5.161h1.549v4.387l3.613,2.142-.743,1.254Z" transform="translate(-2974.491 1375.5)" fill="#7d8c9a" stroke="rgba(0,0,0,0)" stroke-miterlimit="10" stroke-width="1"/>
</svg>
