<svg xmlns="http://www.w3.org/2000/svg" width="35.644" height="33.213" viewBox="0 0 35.644 33.213">
  <g id="Group_4616" data-name="Group 4616" transform="translate(-630.679 -412.652)">
    <path id="Path_5541" data-name="Path 5541" d="M666.322,416.736V441.78a4.083,4.083,0,0,1-4.08,4.084H634.763a3.512,3.512,0,0,1-1.054-.149,4.064,4.064,0,0,1-3.03-3.936V416.736a4.081,4.081,0,0,1,4.08-4.084h27.479a4.082,4.082,0,0,1,4.084,4.08Z" fill="#e8ebed"/>
    <path id="Path_5542" data-name="Path 5542" d="M641.075,420.077a2.97,2.97,0,1,1-2.97-2.97,2.97,2.97,0,0,1,2.97,2.97Z" fill="#ffb100"/>
    <path id="Path_5543" data-name="Path 5543" d="M666.323,438.35v3.431a4.083,4.083,0,0,1-4.08,4.084h-27.48a3.512,3.512,0,0,1-1.054-.149l18.148-18.148a2.617,2.617,0,0,1,3.683,0Z" fill="#397d31"/>
    <path id="Path_5544" data-name="Path 5544" d="M656.015,445.864H634.763a3.512,3.512,0,0,1-1.054-.149,4.064,4.064,0,0,1-3.03-3.936v-.46l8.554-8.554a2.617,2.617,0,0,1,3.683,0Z" fill="#4fa13a"/>
  </g>
</svg>
