<svg xmlns="http://www.w3.org/2000/svg" width="20" height="20" viewBox="0 0 20 20">
  <g id="Group_5897" data-name="Group 5897" transform="translate(-428 -270)">
    <circle id="Ellipse_486" data-name="Ellipse 486" cx="10" cy="10" r="10" transform="translate(428 270)" fill="#6e9785"/>
    <path id="Path_5166" data-name="Path 5166" d="M717.224,537.622H708.2a1.131,1.131,0,0,0-1.127,1.13v6.78a1.131,1.131,0,0,0,1.127,1.13h5.073v-1.13H708.2v-5.65l4.509,2.825,4.51-2.825v2.825h1.127v-3.955A1.132,1.132,0,0,0,717.224,537.622Zm-4.51,3.955-4.509-2.825h9.019Zm3.946,2.567,2.255,1.953-2.255,1.954v-1.389h-2.254v-1.13h2.254Z" transform="translate(-274.996 -262.284)" fill="#fff"/>
  </g>
</svg>
