<svg id="Component_176_3" data-name="Component 176 – 3" xmlns="http://www.w3.org/2000/svg" width="30" height="30" viewBox="0 0 30 30">
  <g id="Group_5458" data-name="Group 5458" transform="translate(-279)">
    <g id="Group_5457" data-name="Group 5457">
      <path id="Path_5709" data-name="Path 5709" d="M14.388,3.906v6.671H5.021l-.562.562-.553.553V3.906H14.388M15.341,2H2.953A.956.956,0,0,0,2,2.953V16.294l3.812-3.812h9.529a.956.956,0,0,0,.953-.953V2.953A.956.956,0,0,0,15.341,2Zm4.765,3.812H18.2v8.576H5.812v1.906a.956.956,0,0,0,.953.953H17.247L21.059,20V6.765A.956.956,0,0,0,20.106,5.812Z" transform="translate(282 4)" fill="#7d8c9a"/>
      <rect id="Rectangle_4872" data-name="Rectangle 4872" width="30" height="30" transform="translate(279)" fill="none" opacity="0.5"/>
    </g>
  </g>
  <g id="Group_5459" data-name="Group 5459" transform="translate(-279)">
    <g id="Group_5457-2" data-name="Group 5457">
      <path id="Path_5709-2" data-name="Path 5709" d="M14.388,3.906v6.671H5.021l-.562.562-.553.553V3.906H14.388M15.341,2H2.953A.956.956,0,0,0,2,2.953V16.294l3.812-3.812h9.529a.956.956,0,0,0,.953-.953V2.953A.956.956,0,0,0,15.341,2Zm4.765,3.812H18.2v8.576H5.812v1.906a.956.956,0,0,0,.953.953H17.247L21.059,20V6.765A.956.956,0,0,0,20.106,5.812Z" transform="translate(282 4)" fill="#7d8c9a"/>
      <rect id="Rectangle_4872-2" data-name="Rectangle 4872" width="30" height="30" transform="translate(279)" fill="none" opacity="0.5"/>
    </g>
  </g>
</svg>
