<svg xmlns="http://www.w3.org/2000/svg" width="14" height="14" viewBox="0 0 14 14">
  <path id="Path_5719" data-name="Path 5719" d="M14.6,2H6.2A1.4,1.4,0,0,0,4.8,3.4v8.4a1.4,1.4,0,0,0,1.4,1.4h8.4A1.4,1.4,0,0,0,16,11.8V3.4A1.4,1.4,0,0,0,14.6,2ZM8.65,7.25A1.049,1.049,0,0,1,7.6,8.3H6.9V9.7H5.85V5.5H7.6A1.049,1.049,0,0,1,8.65,6.55Zm3.5,1.4A1.049,1.049,0,0,1,11.1,9.7H9.35V5.5H11.1a1.049,1.049,0,0,1,1.05,1.05Zm2.8-2.1H13.9v.7h1.05V8.3H13.9V9.7H12.85V5.5h2.1Zm-8.05.7h.7v-.7H6.9ZM3.4,4.8H2v9.8A1.4,1.4,0,0,0,3.4,16h9.8V14.6H3.4Zm7,3.85h.7V6.55h-.7Z" transform="translate(-2 -2)" fill="#ff6565"/>
</svg>
