<svg xmlns="http://www.w3.org/2000/svg" width="13.369" height="12" viewBox="0 0 13.369 12">
  <path id="Path_5692" data-name="Path 5692" d="M745.586,564.62h-.838V561.2h-7.9v3.419h-.842a1.9,1.9,0,0,0-1.895,1.9v3.949h2.736V573.2h7.9v-2.735h2.736v-3.949A1.9,1.9,0,0,0,745.586,564.62Zm-7.676-2.359h5.779v2.359H737.91Zm5.779,9.881H737.91V569.1h5.779Zm2.735-2.736h-1.675v-1.367h-7.9v1.368h-1.676v-2.89a.843.843,0,0,1,.838-.837h9.574a.841.841,0,0,1,.837.838Z" transform="translate(-734.115 -561.201)" fill="#7d8c9a"/>
</svg>
