<svg xmlns="http://www.w3.org/2000/svg" width="42" height="42" viewBox="0 0 42 42">
  <g id="Group_4725" data-name="Group 4725" transform="translate(-4342 -146)">
    <circle id="Ellipse_494" data-name="Ellipse 494" cx="21" cy="21" r="21" transform="translate(4342 146)" fill="#fdedeb"/>
    <path id="Union_110" data-name="Union 110" d="M6.71,13.388a1.778,1.778,0,0,1-.521-1.273V1.8A1.805,1.805,0,0,1,7.99,0h9.282a1.788,1.788,0,0,1,1.659,1.1l3.114,7.271a1.724,1.724,0,0,1,.125.652v2.061a1.806,1.806,0,0,1-1.8,1.8H13.543l1.044,5.025.025.3a1.286,1.286,0,0,1-.38.886l-.909.9Zm1.023-1.166,5.211,5.212-1.529-6.091h9.209V9.022L17.441,1.546H7.733ZM0,11.857V0H3.608V11.857Z" transform="translate(4351.915 160)" fill="#ef2b17" stroke="rgba(0,0,0,0)" stroke-miterlimit="10" stroke-width="1"/>
  </g>
</svg>
