<svg xmlns="http://www.w3.org/2000/svg" width="74" height="74" viewBox="0 0 74 74">
  <g id="Group_5545" data-name="Group 5545" transform="translate(-1318.843 -197.843)">
    <circle id="Ellipse_494" data-name="Ellipse 494" cx="37" cy="37" r="37" transform="translate(1318.843 197.843)" fill="#fdedeb"/>
    <path id="Union_110" data-name="Union 110" d="M11.771,23.487a3.119,3.119,0,0,1-.914-2.233V3.163A3.167,3.167,0,0,1,14.018,0H30.3a3.137,3.137,0,0,1,2.91,1.93l5.463,12.757a3.025,3.025,0,0,1,.219,1.143v3.616a3.168,3.168,0,0,1-3.163,3.166H23.76l1.832,8.815.044.529a2.257,2.257,0,0,1-.666,1.554L23.375,35.09Zm1.8-2.045,9.142,9.144L20.026,19.9H36.182V15.828L30.6,2.713H13.567ZM0,20.8V0H6.33V20.8Z" transform="translate(1336.395 222.562)" fill="#ff6565" stroke="rgba(0,0,0,0)" stroke-miterlimit="10" stroke-width="1"/>
  </g>
</svg>
