<svg xmlns="http://www.w3.org/2000/svg" width="22" height="22.625" viewBox="0 0 22 22.625">
  <path id="Path_5133" data-name="Path 5133" d="M-10.249,24.625a.388.388,0,0,1-.392-.331l-.451-3.146-.091-.037a8.263,8.263,0,0,1-1.9-1.1l-.078-.06-2.949,1.185a.393.393,0,0,1-.132.022.406.406,0,0,1-.356-.2l-2.3-3.976a.407.407,0,0,1,.1-.513l2.5-1.954-.011-.1a8.778,8.778,0,0,1-.079-1.1,8.759,8.759,0,0,1,.079-1.1l.011-.1-2.5-1.955a.393.393,0,0,1-.1-.512l2.3-3.975a.394.394,0,0,1,.345-.2.473.473,0,0,1,.153.025l2.939,1.181.078-.057a8.6,8.6,0,0,1,1.9-1.1l.091-.038.45-3.14A.39.39,0,0,1-10.249,2h4.594a.391.391,0,0,1,.393.332l.449,3.143.092.038a8.209,8.209,0,0,1,1.9,1.1l.078.06L.208,5.49A.383.383,0,0,1,.34,5.468a.4.4,0,0,1,.355.2l2.3,3.976a.405.405,0,0,1-.1.515L.4,12.111l.011.1a8.834,8.834,0,0,1,.079,1.1,8.837,8.837,0,0,1-.079,1.1l-.011.1,2.5,1.955a.4.4,0,0,1,.093.516L.7,20.956a.4.4,0,0,1-.345.2A.507.507,0,0,1,.2,21.132L-2.742,19.95l-.077.059a8.577,8.577,0,0,1-1.9,1.1l-.092.037-.449,3.142a.391.391,0,0,1-.393.334Zm1.343-1.952H-7l.25-1.7.17-1.2,1.127-.456a6.885,6.885,0,0,0,1.474-.859l.956-.724,2.7,1.088.954-1.649-2.305-1.8.149-1.2c.036-.356.059-.614.059-.86a6.3,6.3,0,0,0-.059-.86l-.149-1.2L.62,9.439-.332,7.791l-2.723,1.1-.967-.744a6.63,6.63,0,0,0-1.453-.837L-6.6,6.851l-.41-2.9h-1.9l-.25,1.7-.17,1.2-1.126.456a6.83,6.83,0,0,0-1.474.86l-.957.722-2.7-1.086-.953,1.648,1.359,1.057.945.744-.149,1.2c-.036.355-.059.625-.059.859s.023.5.057.866l.15,1.207-2.3,1.8.953,1.649,1.6-.641,1.127-.458.967.744a6.7,6.7,0,0,0,1.452.838l1.127.456Zm.954-4.939a4.427,4.427,0,0,1-4.422-4.422A4.427,4.427,0,0,1-7.952,8.891a4.427,4.427,0,0,1,4.422,4.422A4.427,4.427,0,0,1-7.952,17.734Zm0-6.891a2.472,2.472,0,0,0-2.469,2.469,2.471,2.471,0,0,0,2.469,2.469,2.471,2.471,0,0,0,2.469-2.469A2.472,2.472,0,0,0-7.952,10.843Z" transform="translate(18.955 -2)" fill="#7d8c9a"/>
</svg>
