<svg xmlns="http://www.w3.org/2000/svg" width="16.269" height="18" viewBox="0 0 16.269 18">
  <path id="social-share" d="M27.656,10.853a3.552,3.552,0,0,0-2.4.932l-3.366-1.554a3.569,3.569,0,0,0,0-2.478L25.243,6.2A3.56,3.56,0,1,0,24.26,4.68l-3.43,1.583a3.573,3.573,0,1,0,.011,5.461l3.423,1.58a3.573,3.573,0,1,0,3.392-2.452Zm0,5.352a1.779,1.779,0,1,1,1.779-1.779A1.781,1.781,0,0,1,27.656,16.2Zm0-10.854a1.779,1.779,0,1,1,1.779-1.779A1.781,1.781,0,0,1,27.656,5.351ZM18.534,7.22a1.777,1.777,0,0,1,1.457,2.8s-.081.106-.121.154a1.778,1.778,0,1,1-1.337-2.95Z" transform="translate(-14.961 0.001)" fill="#767d89"/>
</svg>
