<svg xmlns="http://www.w3.org/2000/svg" width="20.029" height="20.029" viewBox="0 0 20.029 20.029">
  <g id="Group_5896" data-name="Group 5896" transform="translate(-404 -270)">
    <circle id="Ellipse_487" data-name="Ellipse 487" cx="10.014" cy="10.014" r="10.014" transform="translate(404 270)" fill="#ababab"/>
    <path id="Path_5167" data-name="Path 5167" d="M682.518,546.218H687.2a1.033,1.033,0,0,0,.956-.634l1.57-3.664a1.02,1.02,0,0,0,.073-.38V540.5a1.043,1.043,0,0,0-1.04-1.039h-3.28l.494-2.375.016-.167a.779.779,0,0,0-.229-.551l-.55-.546-3.426,3.425a1.036,1.036,0,0,0-.3.733v5.2A1.043,1.043,0,0,0,682.518,546.218Zm0-6.237,2.256-2.256-.7,2.776h4.678v1.04l-1.559,3.639h-4.678Zm-4.158,0h2.079v6.237H678.36Z" transform="translate(-269.984 -261.872)" fill="#fff"/>
  </g>
</svg>
