<svg xmlns="http://www.w3.org/2000/svg" width="10" height="10" viewBox="0 0 10 10">
  <g id="Group_5503" data-name="Group 5503" transform="translate(-1179 -275)">
    <path id="Path_5722" data-name="Path 5722" d="M3,4.111V6.333H4.111V4.111H6.333V3H4.111A1.114,1.114,0,0,0,3,4.111ZM4.111,9.667H3v2.222A1.114,1.114,0,0,0,4.111,13H6.333V11.889H4.111Zm7.778,2.222H9.667V13h2.222A1.114,1.114,0,0,0,13,11.889V9.667H11.889Zm0-8.889H9.667V4.111h2.222V6.333H13V4.111A1.114,1.114,0,0,0,11.889,3Z" transform="translate(1176 272)" fill="#273751"/>
  </g>
</svg>
